<?xml version="1.0" encoding="UTF-8" standalone="no"?>
<!-- Created with Inkscape (http://www.inkscape.org/) -->

<svg
   xmlns:dc="http://purl.org/dc/elements/1.1/"
   xmlns:cc="http://creativecommons.org/ns#"
   xmlns:rdf="http://www.w3.org/1999/02/22-rdf-syntax-ns#"
   xmlns:svg="http://www.w3.org/2000/svg"
   xmlns="http://www.w3.org/2000/svg"
   xmlns:sodipodi="http://sodipodi.sourceforge.net/DTD/sodipodi-0.dtd"
   xmlns:inkscape="http://www.inkscape.org/namespaces/inkscape"
   width="210mm"
   height="297mm"
   viewBox="0 0 210 297"
   version="1.1"
   id="svg547"
   inkscape:version="0.92.4 (5da689c313, 2019-01-14)"
   sodipodi:docname="creacion de logo.svg"
   inkscape:export-filename="C:\Users\nayos\bitmap.png"
   inkscape:export-xdpi="74.666641"
   inkscape:export-ydpi="74.666641">
  <title
     id="title5286">ag games</title>
  <defs
     id="defs541" />
  <sodipodi:namedview
     id="base"
     pagecolor="#ffffff"
     bordercolor="#666666"
     borderopacity="1.0"
     inkscape:pageopacity="0.0"
     inkscape:pageshadow="2"
     inkscape:zoom="0.7"
     inkscape:cx="-34.522635"
     inkscape:cy="737.99602"
     inkscape:document-units="mm"
     inkscape:current-layer="layer1"
     showgrid="false"
     showguides="false"
     inkscape:guide-bbox="true"
     inkscape:window-width="1920"
     inkscape:window-height="1027"
     inkscape:window-x="-8"
     inkscape:window-y="-8"
     inkscape:window-maximized="1">
    <sodipodi:guide
       position="168.10491,156.48214"
       orientation="0,1"
       id="guide774"
       inkscape:locked="false" />
    <sodipodi:guide
       position="108.04371,209.73976"
       orientation="1,0"
       id="guide776"
       inkscape:locked="false" />
  </sodipodi:namedview>
  <metadata
     id="metadata544">
    <rdf:RDF>
      <cc:Work
         rdf:about="">
        <dc:format>image/svg+xml</dc:format>
        <dc:type
           rdf:resource="http://purl.org/dc/dcmitype/StillImage" />
        <dc:title>ag games</dc:title>
      </cc:Work>
    </rdf:RDF>
  </metadata>
  <g
     inkscape:label="Layer 1"
     inkscape:groupmode="layer"
     id="layer1">
    <circle
       style="fill:#ffffff;fill-opacity:1;stroke:#006796;stroke-width:0.21370959;stroke-opacity:0"
       id="path6026"
       cx="107.99046"
       cy="140.1804"
       r="54.3433"
       inkscape:export-filename="C:\Users\nayos\Documents\g5771.png"
       inkscape:export-xdpi="74.666641"
       inkscape:export-ydpi="74.666641" />
    <path
       d="m 68.009836,204.09934 h -2.413923 l 2.413923,-3.86228 z m -0.724177,-6.51759 -7.724554,11.10404 h 3.862277 l 0.96557,-2.41392 h 3.862277 v 2.41392 h 2.896707 v -11.10404 z"
       style="fill:#006796;stroke:#0f6284;stroke-width:0.9655692;stroke-linecap:round;stroke-linejoin:bevel;stroke-miterlimit:10;stroke-dasharray:none;stroke-opacity:1;fill-opacity:1"
       id="path188-8"
       inkscape:connector-curvature="0"
       inkscape:export-filename="C:\Users\nayos\Documents\g5771.png"
       inkscape:export-xdpi="74.666641"
       inkscape:export-ydpi="74.666641" />
    <path
       d="m 84.665906,197.58175 -0.482785,2.41392 h -5.793415 c -1.448354,0 -2.896708,6.75899 -1.448354,6.2762 0.965569,0.48279 1.931139,0.48279 2.896707,0 0.96557,-0.48278 0.241393,-2.17253 0.241393,-2.17253 h 2.896708 c 0,0 -0.96557,4.82785 -1.448355,4.82785 h -6.2762 c -4.827845,0 -0.482783,-10.62127 1.448355,-11.10405 1.931138,-0.48279 7.965946,-0.24139 7.965946,-0.24139 z"
       style="fill:#006796;stroke:#0f6284;stroke-width:0.9655692;stroke-linecap:round;stroke-linejoin:bevel;stroke-miterlimit:10;stroke-dasharray:none;stroke-opacity:1;fill-opacity:1"
       id="path196-6"
       inkscape:connector-curvature="0"
       inkscape:export-filename="C:\Users\nayos\Documents\g5771.png"
       inkscape:export-xdpi="74.666641"
       inkscape:export-ydpi="74.666641" />
    <path
       d="m 102.04615,197.58175 -0.48278,2.41392 h -5.793414 c -1.448349,0 -2.896713,6.75899 -1.448349,6.2762 0.965561,0.48279 1.931137,0.48279 2.896693,0 0.96558,-0.48278 0.2414,-2.17253 0.2414,-2.17253 h 2.89671 c 0,0 -0.96557,4.82785 -1.44835,4.82785 h -6.27621 c -4.827843,0 -0.482774,-10.62127 1.448363,-11.10405 1.931137,-0.48279 7.965937,-0.24139 7.965937,-0.24139 z"
       style="fill:#006796;stroke:#0f6284;stroke-width:0.9655692;stroke-linecap:round;stroke-linejoin:bevel;stroke-miterlimit:10;stroke-dasharray:none;stroke-opacity:1;fill-opacity:1"
       id="path204-0"
       inkscape:connector-curvature="0"
       inkscape:export-filename="C:\Users\nayos\Documents\g5771.png"
       inkscape:export-xdpi="74.666641"
       inkscape:export-ydpi="74.666641" />
    <path
       d="m 110.01211,204.09934 h -2.41393 l 2.41393,-3.86228 z m -0.72418,-6.51759 -7.72456,11.10404 h 3.86228 l 0.96557,-2.41392 h 3.86227 v 2.41392 h 2.89671 v -11.10404 z"
       style="fill:#006796;stroke:#0f6284;stroke-width:0.9655692;stroke-linecap:round;stroke-linejoin:bevel;stroke-miterlimit:10;stroke-dasharray:none;stroke-opacity:1;fill-opacity:1"
       id="path212-3"
       inkscape:connector-curvature="0"
       inkscape:export-filename="C:\Users\nayos\Documents\g5771.png"
       inkscape:export-xdpi="74.666641"
       inkscape:export-ydpi="74.666641" />
    <path
       d="m 115.08134,208.68579 h 2.41392 l 2.89672,-8.20733 1.44835,5.79341 4.82785,-5.31063 -1.93114,7.72455 h 3.37948 l 2.89672,-11.10404 h -3.86228 l -3.1381,3.62088 -1.44835,-3.86228 h -3.86228 z"
       style="fill:#006796;stroke:#0f6284;stroke-width:0.9655692;stroke-linecap:round;stroke-linejoin:bevel;stroke-miterlimit:10;stroke-dasharray:none;stroke-opacity:1;fill-opacity:1"
       id="path220-9"
       inkscape:connector-curvature="0"
       inkscape:export-filename="C:\Users\nayos\Documents\g5771.png"
       inkscape:export-xdpi="74.666641"
       inkscape:export-ydpi="74.666641" />
    <path
       d="m 139.94474,206.51326 v 2.41393 h -6.75897 c -2.89671,-0.48279 -0.96558,-6.2762 -0.96558,-8.69013 0.48279,0.96557 -1.09205,0.1627 -2.23577,1.28856 -1.14371,1.12537 3.20135,-3.2197 4.6497,-4.18527 h 7.72455 v 2.89671 h -5.79342 c -0.96557,0 -0.48277,1.93114 -0.48277,1.93114 h 3.86226 v 1.93114 h -4.82784 c 0,0 -0.96557,0.96557 0,2.41392 z"
       style="fill:#006796;stroke:#0f6284;stroke-width:0.9655692;stroke-linecap:round;stroke-linejoin:bevel;stroke-miterlimit:10;stroke-dasharray:none;stroke-opacity:1;fill-opacity:1"
       id="path228-5"
       inkscape:connector-curvature="0"
       inkscape:export-filename="C:\Users\nayos\Documents\g5771.png"
       inkscape:export-xdpi="74.666641"
       inkscape:export-ydpi="74.666641" />
    <path
       d="m 153.22132,199.99567 0.96558,-2.41392 c 0,0 -6.2762,-0.48279 -7.72455,0 -0.48279,-0.48279 -3.3795,1.93114 -3.86228,2.41392 -0.48278,0.48279 1.44835,-0.48278 1.44835,0 0,0.48279 -1.44835,4.82785 3.37949,4.34506 3.1381,-0.72418 2.17253,2.17253 1.20697,2.17253 h -6.27621 c -0.48278,0 -0.48278,2.41393 -0.48278,2.41393 0,0 5.31062,0.48278 6.2762,0 1.93114,0.96556 6.2762,-3.86228 1.93114,-6.75899 h -3.3795 c 0,0 -0.48278,-1.44835 0.48278,-2.41392 1.44837,0 6.03481,0.24139 6.03481,0.24139 z"
       style="fill:#006796;fill-opacity:1;stroke:#0f6284;stroke-width:0.9655692;stroke-linecap:round;stroke-linejoin:bevel;stroke-miterlimit:10;stroke-dasharray:none;stroke-opacity:1"
       id="path236-4"
       inkscape:connector-curvature="0"
       inkscape:export-filename="C:\Users\nayos\Documents\g5771.png"
       inkscape:export-xdpi="74.666641"
       inkscape:export-ydpi="74.666641" />
    <path
       style="fill:#006796;fill-opacity:1;stroke-width:0.2005263"
       d="M 102.94462,86.063996 A 54.428569,54.428569 0 0 0 53.847359,135.60412 h 49.097261 z m 10.20558,0.0072 V 135.6041 h 49.09209 A 54.428569,54.428569 0 0 0 113.1502,86.07123 Z M 53.961564,145.8097 a 54.428569,54.428569 0 0 0 48.983056,48.55466 V 145.8097 Z m 59.188636,0 v 48.59703 a 54.428569,54.428569 0 0 0 49.02956,-48.59703 z"
       id="path744"
       inkscape:export-filename="C:\Users\nayos\Documents\g5771.png"
       inkscape:export-xdpi="74.666641"
       inkscape:export-ydpi="74.666641"
       inkscape:connector-curvature="0" />
    <circle
       style="fill:#ffffff;stroke-width:0.15320228"
       id="path746"
       cx="108.04985"
       cy="140.46654"
       r="40.708035"
       inkscape:export-filename="C:\Users\nayos\Documents\g5771.png"
       inkscape:export-xdpi="74.666641"
       inkscape:export-ydpi="74.666641" />
    <g
       id="g5771"
       transform="matrix(1.5062888,0,0,1.5062888,-53.649638,-75.790054)"
       inkscape:export-filename="C:\Users\nayos\Documents\g5771.png"
       inkscape:export-xdpi="74.666641"
       inkscape:export-ydpi="74.666641">
      <path
         inkscape:connector-curvature="0"
         id="path5318"
         style="fill:#020234;fill-opacity:1;fill-rule:nonzero;stroke:none;stroke-width:0.35277775"
         d="m 111.87092,131.6073 c 0,-1.76389 12.7,-6.70278 15.875,10.58333 2.46944,8.46667 1.76389,10.58333 0,11.99444 -5.64445,4.23334 -11.64167,-4.58611 -14.11111,-5.64444 -2.46945,-1.05833 -12.70001,-0.35278 -12.70001,-0.35278 0,0 -5.997221,9.525 -12.347221,7.05556 -6.35,-2.46945 -1.41111,-11.64167 -1.41111,-11.64167 l 2.11667,-7.05555 c 0,0 1.76389,-6.35 7.76111,-7.05556 4.938891,-0.35278 5.997221,2.11667 5.997221,2.11667 z" />
      <path
         inkscape:connector-curvature="0"
         id="path5322"
         style="fill:none;stroke:#000000;stroke-width:0.35277775;stroke-linecap:butt;stroke-linejoin:miter;stroke-miterlimit:10;stroke-dasharray:none;stroke-opacity:1"
         d="m 111.87092,131.6073 c 0,-1.76389 12.7,-6.70278 15.875,10.58333 2.46944,8.46667 1.76389,10.58333 0,11.99444 -5.64445,4.23334 -11.64167,-4.58611 -14.11111,-5.64444 -2.46945,-1.05833 -12.70001,-0.35278 -12.70001,-0.35278 0,0 -5.997221,9.525 -12.347221,7.05556 -6.35,-2.46945 -1.41111,-11.64167 -1.41111,-11.64167 l 2.11667,-7.05555 c 0,0 1.76389,-6.35 7.76111,-7.05556 4.938891,-0.35278 5.997221,2.11667 5.997221,2.11667 z" />
      <path
         inkscape:connector-curvature="0"
         id="path5326"
         style="fill:#d3a748;fill-opacity:1;fill-rule:nonzero;stroke:none;stroke-width:0.35277775"
         d="m 95.554949,140.74646 h 3.70416 l -1.85208,3.24133 z" />
      <path
         inkscape:connector-curvature="0"
         id="path5330"
         style="fill:none;stroke:#000000;stroke-width:0.26458332;stroke-linecap:butt;stroke-linejoin:miter;stroke-miterlimit:10;stroke-dasharray:none;stroke-opacity:1"
         d="m 95.554949,140.74646 h 3.70416 l -1.85208,3.24133 z" />
      <path
         inkscape:connector-curvature="0"
         id="path5334"
         style="fill:#e8ad35;fill-opacity:1;fill-rule:nonzero;stroke:none;stroke-width:0.35277775"
         d="m 116.10425,135.13507 c 0.26458,-1.23472 0.97014,-1.41111 1.32292,-1.51024 2.55764,-0.25364 2.55764,3.27413 0.79375,3.27413 -0.70556,0.35278 -2.11667,-0.35277 -2.11667,-1.76389" />
      <path
         sodipodi:nodetypes="ccscc"
         inkscape:connector-curvature="0"
         id="path5338"
         style="fill:none;stroke:#000000;stroke-width:0.35277775;stroke-linecap:butt;stroke-linejoin:miter;stroke-miterlimit:10;stroke-dasharray:none;stroke-opacity:1"
         d="m 116.10425,135.13507 c 0.26458,-1.23472 0.97014,-1.41111 1.32292,-1.51024 0.77337,-0.0767 1.31289,0.19235 1.64051,0.60506 0.75585,0.95218 0.38377,2.66907 -0.84676,2.66907 -0.70556,0.35278 -2.11667,-0.35277 -2.11667,-1.76389 z" />
      <path
         inkscape:connector-curvature="0"
         id="path5342"
         style="fill:#e8ad35;fill-opacity:1;fill-rule:nonzero;stroke:none;stroke-width:0.35277775"
         d="m 116.45703,142.19063 c 0.26458,-1.23472 0.97014,-1.41111 1.32291,-1.51024 2.55764,-0.25365 2.55764,3.27413 0.79375,3.27413 -0.70555,0.35278 -2.11666,-0.35278 -2.11666,-1.76389" />
      <path
         inkscape:connector-curvature="0"
         id="path5346"
         style="fill:none;stroke:#000000;stroke-width:0.35277775;stroke-linecap:butt;stroke-linejoin:miter;stroke-miterlimit:10;stroke-dasharray:none;stroke-opacity:1"
         d="m 116.45703,142.19063 c 0.26458,-1.23472 0.97014,-1.41111 1.32291,-1.51024 2.55764,-0.25365 2.55764,3.27413 0.79375,3.27413 -0.70555,0.35278 -2.11666,-0.35278 -2.11666,-1.76389 z" />
      <path
         inkscape:connector-curvature="0"
         id="path5350"
         style="fill:#e8ad35;fill-opacity:1;fill-rule:nonzero;stroke:none;stroke-width:0.35277775"
         d="m 120.33758,138.31007 c 0.26459,-1.23472 0.97014,-1.41111 1.32292,-1.51024 2.55764,-0.25364 2.55764,3.27413 0.79375,3.27413 -0.70556,0.35278 -2.11667,-0.35277 -2.11667,-1.76389" />
      <path
         inkscape:connector-curvature="0"
         id="path5354"
         style="fill:none;stroke:#000000;stroke-width:0.35277775;stroke-linecap:butt;stroke-linejoin:miter;stroke-miterlimit:10;stroke-dasharray:none;stroke-opacity:1"
         d="m 120.33758,138.31007 c 0.26459,-1.23472 0.97014,-1.41111 1.32292,-1.51024 2.55764,-0.25364 2.55764,3.27413 0.79375,3.27413 -0.70556,0.35278 -2.11667,-0.35277 -2.11667,-1.76389 z" />
      <path
         inkscape:connector-curvature="0"
         id="path5358"
         style="fill:#e8ad35;fill-opacity:1;fill-rule:nonzero;stroke:none;stroke-width:0.35277775"
         d="m 112.57647,138.66285 c 0.26459,-1.23472 0.97014,-1.41111 1.32292,-1.51024 2.55764,-0.25365 2.55764,3.27413 0.79375,3.27413 -0.70556,0.35278 -2.11667,-0.35277 -2.11667,-1.76389" />
      <path
         inkscape:connector-curvature="0"
         id="path5362"
         style="fill:none;stroke:#000000;stroke-width:0.35277775;stroke-linecap:butt;stroke-linejoin:miter;stroke-miterlimit:10;stroke-dasharray:none;stroke-opacity:1"
         d="m 112.57647,138.66285 c 0.26459,-1.23472 0.97014,-1.41111 1.32292,-1.51024 2.55764,-0.25365 2.55764,3.27413 0.79375,3.27413 -0.70556,0.35278 -2.11667,-0.35277 -2.11667,-1.76389 z" />
      <path
         inkscape:connector-curvature="0"
         id="path5438"
         style="fill:#d3a748;fill-opacity:1;fill-rule:nonzero;stroke:none;stroke-width:0.35277775"
         d="m 100.03737,140.51786 0.0684,-3.70381 3.2064,1.9117 z" />
      <path
         inkscape:connector-curvature="0"
         id="path5442"
         style="fill:none;stroke:#000000;stroke-width:0.26458332;stroke-linecap:butt;stroke-linejoin:miter;stroke-miterlimit:10;stroke-dasharray:none;stroke-opacity:1"
         d="m 100.03737,140.51786 0.0684,-3.70381 3.2064,1.9117 z" />
      <path
         inkscape:connector-curvature="0"
         id="path5446"
         style="fill:#d3a748;fill-opacity:1;fill-rule:nonzero;stroke:none;stroke-width:0.35277775"
         d="m 95.265209,136.90412 -0.13512,3.70169 -3.17147,-1.96885 z" />
      <path
         inkscape:connector-curvature="0"
         id="path5450"
         style="fill:none;stroke:#000000;stroke-width:0.26458332;stroke-linecap:butt;stroke-linejoin:miter;stroke-miterlimit:10;stroke-dasharray:none;stroke-opacity:1"
         d="m 95.265209,136.90412 -0.13512,3.70169 -3.17147,-1.96885 z" />
      <path
         inkscape:connector-curvature="0"
         id="path5454"
         style="fill:#d3a748;fill-opacity:1;fill-rule:nonzero;stroke:none;stroke-width:0.35277775"
         d="m 99.638419,136.81698 -3.70382,-0.0568 1.90183,-3.21239 z" />
      <path
         inkscape:connector-curvature="0"
         id="path5458"
         style="fill:none;stroke:#000000;stroke-width:0.26458332;stroke-linecap:butt;stroke-linejoin:miter;stroke-miterlimit:10;stroke-dasharray:none;stroke-opacity:1"
         d="m 99.638419,136.81698 -3.70382,-0.0568 1.90183,-3.21239 z" />
    </g>
  </g>
</svg>
